<svg width="100" height="100" viewBox="0 0 100 100" fill="none" xmlns="http://www.w3.org/2000/svg">
<path d="M18.8699 80.8154C14.7678 75.5215 13.5567 73.7829 12.619 72.0833L12.4237 71.7122C12.1502 71.2433 11.9744 70.9112 11.8181 70.5792C11.5447 70.0517 11.3102 69.5633 11.1149 69.075C10.2554 66.9262 10.0796 65.0117 11.4665 63.2536C13.8887 60.1476 17.8346 61.0266 21.1554 63.8592C23.2846 65.6955 26.4882 68.9578 28.4221 71.2824C29.6918 72.8061 32.0164 74.3884 33.7159 74.9549L34.2237 75.0917L35.1028 72.2982C31.6648 71.0871 28.5393 69.4852 25.7655 67.4731C19.2606 62.7848 13.6153 53.6034 14.1036 46.61C14.4162 42.1756 15.9008 37.8389 18.5574 33.6194C18.323 31.197 18.1862 29.1459 18.1862 27.4268C18.1862 24.985 18.9871 22.3283 20.5303 19.4176C21.0773 18.3627 22.1712 17.6985 23.3628 17.6594C26.1171 17.5813 28.7933 17.8548 31.3522 18.519C33.6182 19.0855 36.0404 20.1013 38.5798 21.5469C42.389 20.7655 46.0809 20.3552 49.6557 20.3552C53.25 20.3552 56.981 20.7459 60.8487 21.5469C64.1695 19.6911 67.0606 18.4213 69.6195 17.7766C72.9208 16.9171 75.89 17.1711 78.3317 18.6948L79.2108 19.4762C80.7149 21.4101 81.5353 23.9887 81.8088 27.1729C82.0237 29.5952 81.9456 31.998 81.5744 34.3812C83.7427 37.6435 85.1491 41.8044 85.8328 46.8444C86.9658 55.0685 83.2153 63.5271 77.2378 68.4108C74.464 70.6768 70.6353 72.474 65.7713 73.8219C66.0839 74.8963 66.2987 75.9708 66.4355 77.0452C66.6504 78.8228 66.8066 83.5698 66.9043 91.5009C72.4129 88.6293 76.6909 85.7967 79.7382 83.0228C84.9147 78.3149 88.8216 71.6145 91.361 63.8397C93.4902 57.3346 93.9004 51.8453 92.8456 45.8091C91.5563 38.4444 89.7201 32.4668 86.9267 27.6417C83.6646 22.0157 78.4685 16.7022 72.2566 12.7953C66.2987 9.06414 56.6489 6.56369 49.0501 6.56369C41.0607 6.56369 32.1336 9.14228 25.3553 13.9283C18.7527 18.5776 13.3027 25.571 10.1382 32.4473C7.63783 37.8779 6.60253 43.6798 6.60253 52.236C6.60253 59.1708 9.12243 67.5903 12.0916 72.8647C14.4357 77.0256 17.7565 80.9717 22.6596 85.2498C25.1209 87.3986 28.6175 89.567 33.1103 91.6962V89.5865C27.0938 88.18 22.3079 85.2498 18.8699 80.8154ZM17.0923 66.2034V66.1643V66.1838V66.2034ZM24.1051 76.8108C26.9571 80.5028 31.1569 82.7689 36.8999 83.6089C38.5212 83.8433 39.7128 85.2302 39.7128 86.8516V96.7167C39.7128 99.0609 37.3297 100.643 35.1418 99.7446C27.758 96.7167 22.1517 93.5325 18.2839 90.153C12.8534 85.4061 9.04429 80.8935 6.30951 76.0489C2.83244 69.8759 0 60.382 0 52.236C0 42.8007 1.19158 36.1003 4.14123 29.7124C7.75504 21.8594 13.9278 13.9478 21.5461 8.57577C29.477 2.96929 39.7519 0 49.0501 0C57.8405 0 68.7014 2.81301 75.7728 7.22787C82.8832 11.6818 88.8606 17.7766 92.6502 24.3403C95.8929 29.9468 97.944 36.6082 99.3504 44.6565C100.581 51.7672 100.093 58.3308 97.6314 65.8322C94.7599 74.6033 90.3061 82.261 84.192 87.8088C79.7773 91.833 73.4091 95.7595 65.0486 99.6664C62.8607 100.682 60.3604 99.1195 60.3408 96.7362C60.2432 85.9921 60.0674 79.5652 59.8525 77.7875C59.6571 76.1856 59.1688 74.5447 58.3679 72.8452C57.4693 70.9308 58.6023 68.6843 60.6729 68.2545C66.3964 67.0434 70.5181 65.3438 73.038 63.2927C77.316 59.796 80.0898 53.5448 79.2889 47.6844C78.6443 43.0547 77.355 39.5579 75.4602 37.1551C74.8742 36.3933 74.6398 35.4361 74.8351 34.4984C75.2844 32.2519 75.4016 29.9859 75.2063 27.6808C75.0695 26.0399 74.7375 24.8092 74.2882 23.9692C73.5654 23.7348 72.5887 23.7348 71.2604 24.0864C69.1116 24.6529 66.3573 25.8836 63.0561 27.8175C62.3333 28.2473 61.4738 28.3645 60.6534 28.1887C56.7856 27.3096 53.1132 26.8799 49.6362 26.8799C46.1591 26.8799 42.5453 27.3096 38.7361 28.1887C37.8962 28.384 37.0171 28.2473 36.2748 27.798C33.8135 26.3133 31.6257 25.3366 29.7114 24.8482C28.3635 24.5161 26.9571 24.3013 25.5311 24.2231C25.0232 25.4734 24.7888 26.5478 24.7888 27.4073C24.7888 29.1264 24.945 31.3338 25.2381 34.0491C25.3162 34.811 25.1209 35.5924 24.6911 36.237C22.2493 39.8509 20.921 43.4453 20.6866 47.0397C20.3741 51.4546 24.8278 58.6825 29.6332 62.1401C32.6024 64.289 36.099 65.8908 40.1035 66.9457C41.9202 67.4341 42.975 69.3094 42.4085 71.1066L39.8886 79.0377C39.5761 79.9949 38.8533 80.7568 37.9157 81.1279C35.9037 81.8898 33.7745 81.8898 31.6257 81.167C28.7737 80.2098 25.4139 77.9438 23.3433 75.4628C22.8354 74.8573 22.2298 74.1736 21.5656 73.4508C22.2493 74.408 23.0698 75.4824 24.1051 76.8108Z" fill="white"/>
</svg>