<svg width="100" height="100" viewBox="0 0 100 100" fill="none" xmlns="http://www.w3.org/2000/svg">
<path d="M37.92 82.06H52.7V57.37C52.7 55.68 52.86 54.49 53.19 53.77C54.68 50.14 57.21 48.33 60.77 48.33C65.76 48.33 68.26 51.67 68.26 58.34V82.06H83.14V56.68C83.14 50.13 81.57 45.18 78.42 41.8C75.28 38.43 71.14 36.74 66.02 36.74C60.32 36.74 55.84 39.24 52.6 44.23H52.7V37.81H37.92C38.05 40.61 38.05 55.35 37.92 82.06ZM22.26 31.69C24.85 31.69 26.91 30.98 28.43 29.55C29.95 28.12 30.71 26.31 30.71 24.11C30.65 21.84 29.87 19.99 28.38 18.57C26.89 17.14 24.88 16.43 22.35 16.43C19.89 16.43 17.88 17.16 16.32 18.62C14.76 20.08 13.99 21.91 13.99 24.11C13.99 26.31 14.74 28.13 16.23 29.55C17.72 30.98 19.7 31.69 22.16 31.69H22.26ZM14.88 82.06H29.76V37.82H14.88V82.06ZM0 91V7C0 5.06 0.7 3.4 2.09 2.04C3.48 0.680001 5.18 -1.46031e-06 7.19 -1.46031e-06H90.8C92.81 -1.46031e-06 94.51 0.680001 95.9 2.04C97.3 3.4 98 5.06 98 7V91C98 92.94 97.3 94.6 95.91 95.96C94.52 97.32 92.82 98 90.81 98H7.19C5.18 98 3.48 97.32 2.09 95.96C0.7 94.6 0 92.94 0 91Z" fill="white"/>
</svg>
