<?xml version="1.0" encoding="utf-8"?>
<!-- Generator: Adobe Illustrator 24.1.1, SVG Export Plug-In . SVG Version: 6.00 Build 0)  -->
<svg version="1.1" id="Layer_1" xmlns="http://www.w3.org/2000/svg" xmlns:xlink="http://www.w3.org/1999/xlink" x="0px" y="0px"
	 viewBox="0 0 512 512" style="enable-background:new 0 0 512 512;" xml:space="preserve">
<style type="text/css">
	.st0{fill:#555555;}
</style>
<g>
	<path class="st0" d="M96.6,413.7c-21-27.1-27.2-36-32-44.7l-1-1.9c-1.4-2.4-2.3-4.1-3.1-5.8c-1.4-2.7-2.6-5.2-3.6-7.7
		c-4.4-11-5.3-20.8,1.8-29.8c12.4-15.9,32.6-11.4,49.6,3.1c10.9,9.4,27.3,26.1,37.2,38c6.5,7.8,18.4,15.9,27.1,18.8l2.6,0.7
		l4.5-14.3c-17.6-6.2-33.6-14.4-47.8-24.7c-33.3-24-62.2-71-59.7-106.8c1.6-22.7,9.2-44.9,22.8-66.5c-1.2-12.4-1.9-22.9-1.9-31.7
		c0-12.5,4.1-26.1,12-41c2.8-5.4,8.4-8.8,14.5-9c14.1-0.4,27.8,1,40.9,4.4c11.6,2.9,24,8.1,37,15.5c19.5-4,38.4-6.1,56.7-6.1
		c18.4,0,37.5,2,57.3,6.1c17-9.5,31.8-16,44.9-19.3c16.9-4.4,32.1-3.1,44.6,4.7l4.5,4c7.7,9.9,11.9,23.1,13.3,39.4
		c1.1,12.4,0.7,24.7-1.2,36.9c11.1,16.7,18.3,38,21.8,63.8c5.8,42.1-13.4,85.4-44,110.4c-14.2,11.6-33.8,20.8-58.7,27.7
		c1.6,5.5,2.7,11,3.4,16.5c1.1,9.1,1.9,33.4,2.4,74c28.2-14.7,50.1-29.2,65.7-43.4c26.5-24.1,46.5-58.4,59.5-98.2
		c10.9-33.3,13-61.4,7.6-92.3c-6.6-37.7-16-68.3-30.3-93c-16.7-28.8-43.3-56-75.1-76C339.4,46.4,290,33.6,251.1,33.6
		c-40.9,0-86.6,13.2-121.3,37.7c-33.8,23.8-61.7,59.6-77.9,94.8c-12.8,27.8-18.1,57.5-18.1,101.3c0,35.5,12.9,78.6,28.1,105.6
		c12,21.3,29,41.5,54.1,63.4c12.6,11,30.5,22.1,53.5,33v-10.8C138.7,451.4,114.2,436.4,96.6,413.7z M87.5,338.9l0-0.2l0,0.1V338.9z
		 M123.4,393.2c14.6,18.9,36.1,30.5,65.5,34.8c8.3,1.2,14.4,8.3,14.4,16.6v50.5c0,12-12.2,20.1-23.4,15.5
		c-37.8-15.5-66.5-31.8-86.3-49.1c-27.8-24.3-47.3-47.4-61.3-72.2C14.5,357.7,0,309.1,0,267.4c0-48.3,6.1-82.6,21.2-115.3
		c18.5-40.2,50.1-80.7,89.1-108.2C150.9,15.2,203.5,0,251.1,0c45,0,100.6,14.4,136.8,37c36.4,22.8,67,54,86.4,87.6
		c16.6,28.7,27.1,62.8,34.3,104c6.3,36.4,3.8,70-8.8,108.4c-14.7,44.9-37.5,84.1-68.8,112.5c-22.6,20.6-55.2,40.7-98,60.7
		c-11.2,5.2-24-2.8-24.1-15c-0.5-55-1.4-87.9-2.5-97c-1-8.2-3.5-16.6-7.6-25.3c-4.6-9.8,1.2-21.3,11.8-23.5
		c29.3-6.2,50.4-14.9,63.3-25.4c21.9-17.9,36.1-49.9,32-79.9c-3.3-23.7-9.9-41.6-19.6-53.9c-3-3.9-4.2-8.8-3.2-13.6
		c2.3-11.5,2.9-23.1,1.9-34.9c-0.7-8.4-2.4-14.7-4.7-19c-3.7-1.2-8.7-1.2-15.5,0.6c-11,2.9-25.1,9.2-42,19.1
		c-3.7,2.2-8.1,2.8-12.3,1.9c-19.8-4.5-38.6-6.7-56.4-6.7c-17.8,0-36.3,2.2-55.8,6.7c-4.3,1-8.8,0.3-12.6-2
		c-12.6-7.6-23.8-12.6-33.6-15.1c-6.9-1.7-14.1-2.8-21.4-3.2c-2.6,6.4-3.8,11.9-3.8,16.3c0,8.8,0.8,20.1,2.3,34
		c0.4,3.9-0.6,7.9-2.8,11.2c-12.5,18.5-19.3,36.9-20.5,55.3c-1.6,22.6,21.2,59.6,45.8,77.3c15.2,11,33.1,19.2,53.6,24.6
		c9.3,2.5,14.7,12.1,11.8,21.3l-12.9,40.6c-1.6,4.9-5.3,8.8-10.1,10.7c-10.3,3.9-21.2,3.9-32.2,0.2c-14.6-4.9-31.8-16.5-42.4-29.2
		c-2.6-3.1-5.7-6.6-9.1-10.3C113.9,380.9,118.1,386.4,123.4,393.2z"/>
</g>
</svg>
