<svg width="100" height="40" viewBox="0 0 160 40" fill="none" xmlns="http://www.w3.org/2000/svg">
<path d="M79.8133 10.0147C73.5733 10.0147 69.0667 14.5214 69.0667 21.2666C69.0667 28.0118 74.1333 32.5184 80.3733 32.5184C84.16 32.5184 87.4667 30.8689 89.5467 28.1001L85.2267 25.3314C84.08 26.7158 82.3467 27.511 80.4 27.511C77.68 27.511 75.3867 25.9499 74.5333 23.4462H90.4C90.5333 22.7393 90.5867 22.0324 90.5867 21.2666C90.56 14.4919 86.08 10.0147 79.8133 10.0147ZM74.4533 19.0574C75.1733 16.5538 77.0933 14.9926 79.8133 14.9926C82.5333 14.9926 84.4533 16.5538 85.1733 19.0574H74.4533ZM140.747 10.0147C134.507 10.0147 130 14.5214 130 21.2666C130 28.0118 135.067 32.5184 141.307 32.5184C145.093 32.5184 148.4 30.8689 150.48 28.1001L146.16 25.3314C145.013 26.7158 143.28 27.511 141.333 27.511C138.613 27.511 136.32 25.9499 135.467 23.4462H151.333C151.467 22.7393 151.52 22.0324 151.52 21.2666C151.52 14.4919 147.013 10.0147 140.747 10.0147ZM135.413 19.0574C136.133 16.5538 138.053 14.9926 140.773 14.9926C143.493 14.9926 145.413 16.5538 146.133 19.0574H135.413ZM113.333 21.2666C113.333 25.0074 115.547 27.511 118.987 27.511C121.307 27.511 123.067 26.3328 123.973 24.4477L128.32 27.2165C126.533 30.5155 123.147 32.5184 118.987 32.5184C112.72 32.5184 108.24 28.0118 108.24 21.2666C108.24 14.5214 112.747 10.0147 118.987 10.0147C123.147 10.0147 126.507 12.0177 128.32 15.3166L123.973 18.0854C123.067 16.1708 121.333 15.0221 118.987 15.0221C115.547 14.9926 113.333 17.4963 113.333 21.2666ZM160 3.12224V31.8704H154.907V3.12224H160ZM20.9067 0L41.8133 40H0L20.9067 0ZM73.2 3.12224L57.52 33.137L41.84 3.12224H47.7333L57.5467 21.8851L67.36 3.12224H73.2ZM106.533 10.6333V16.701C105.973 16.5243 105.36 16.4065 104.72 16.4065C101.44 16.4065 99.0667 18.9102 99.0667 22.651V31.8999H93.9733V10.6333H99.0667V16.377C99.0667 13.1959 102.4 10.6333 106.533 10.6333Z" fill="black"/>
</svg>
